<svg xmlns="http://www.w3.org/2000/svg" viewBox="0 0 1024 1024"><rect width="1024" height="1024" fill="#060D1F"/><g transform="translate(320.34 691.95) scale(0.5091 -0.5091)"><path d="M383 712Q515 712 605.0 641.5Q695 571 721 450H510Q491 490 457.5 511.0Q424 532 380 532Q312 532 271.5 483.5Q231 435 231 354Q231 272 271.5 223.5Q312 175 380 175Q424 175 457.5 196.0Q491 217 510 257H721Q695 136 605.0 65.5Q515 -5 383 -5Q279 -5 199.0 40.5Q119 86 75.5 167.5Q32 249 32 354Q32 458 75.5 539.5Q119 621 199.0 666.5Q279 712 383 712Z" fill="#FFFFFF"/></g><path d="M 758.20 555.41 A 250 250 0 1 1 758.20 468.59" fill="none" stroke="#00C2A8" stroke-width="22" stroke-linecap="round"/><circle cx="758.20" cy="555.41" r="17" fill="#F5A623"/><circle cx="758.20" cy="468.59" r="17" fill="#F5A623"/></svg>